# Blender v3.0.1 OBJ File: ''
# www.blender.org
v -30.000000 0.000000 30.000000
v 30.000000 0.000000 30.000000
v -30.000000 0.000000 -30.000000
v 30.000000 0.000000 -30.000000
v -30.000000 3.000000 30.000000
v 30.000000 3.000000 30.000000
v -30.000000 3.000000 -30.000000
v 30.000000 3.000000 -30.000000
vt 10.500000 1.000000
vt -9.500000 1.000000
vt -9.500000 -0.000000
vt 10.500000 -0.000000
vt 10.500000 1.000000
vt 10.500000 -0.000000
vt 10.500000 1.000000
vt -9.500000 1.000000
vt -9.500000 -0.000000
vt 10.500000 -0.000000
vt -9.500000 -0.000000
vt -9.500000 1.000000
vn 1.0000 0.0000 0.0000
vn 0.0000 0.0000 -1.0000
vn 0.0000 0.0000 1.0000
vn -1.0000 0.0000 0.0000
s off
f 7/1/1 5/2/1 1/3/1 3/4/1
f 5/2/2 6/5/2 2/6/2 1/3/2
f 8/7/3 7/8/3 3/9/3 4/10/3
f 2/11/4 6/12/4 8/7/4 4/10/4
