# Blender v3.0.1 OBJ File: ''
# www.blender.org
v 1.063136 1.584973 -1.074497
v 0.000000 1.297388 -1.151885
v 0.000000 1.584974 -1.514863
v 0.000000 1.297388 -1.151885
v -0.806471 1.297388 -0.817832
v 0.000000 1.584974 -1.514863
v 0.000000 1.584974 -1.514863
v -0.806471 1.297388 -0.817832
v -1.063136 1.584973 -1.074497
v -0.806471 1.297388 -0.817832
v -1.503485 1.584973 -0.011361
v -1.063136 1.584973 -1.074497
v -0.806471 1.297388 -0.817832
v -1.140527 1.297388 -0.011361
v -1.503485 1.584973 -0.011361
v -0.806471 1.297388 0.795110
v -1.503485 1.584973 -0.011361
v -1.140527 1.297388 -0.011361
v -0.806471 1.297388 0.795110
v -1.063136 1.584973 1.051775
v -1.503485 1.584973 -0.011361
v 0.000000 1.297388 1.129160
v -1.063136 1.584973 1.051775
v -0.806471 1.297388 0.795110
v 0.000000 1.584973 1.492142
v -1.063136 1.584973 1.051775
v 0.000000 1.297388 1.129160
v 0.806471 1.297388 0.795110
v 0.000000 1.584973 1.492142
v 0.000000 1.297388 1.129160
v 1.063136 1.584973 1.051775
v 0.000000 1.584973 1.492142
v 0.806471 1.297388 0.795110
v 1.140527 1.297388 -0.011361
v 1.063136 1.584973 1.051775
v 0.806471 1.297388 0.795110
v 1.503485 1.584973 -0.011361
v 1.063136 1.584973 1.051775
v 1.140527 1.297388 -0.011361
v 1.503485 1.584973 -0.011361
v 1.140527 1.297388 -0.011361
v 0.806471 1.297388 -0.817832
v 1.503485 1.584973 -0.011361
v 0.806471 1.297388 -0.817832
v 1.063136 1.584973 -1.074497
v 1.063136 1.584973 -1.074497
v 1.584086 2.239144 -0.011361
v 1.503485 1.584973 -0.011361
v 1.584086 2.239144 -0.011361
v 1.120124 2.239144 1.108754
v 1.503485 1.584973 -0.011361
v 1.503485 1.584973 -0.011361
v 1.120124 2.239144 1.108754
v 1.063136 1.584973 1.051775
v 0.000000 2.239144 1.572722
v 1.063136 1.584973 1.051775
v 1.120124 2.239144 1.108754
v 0.000000 2.239144 1.572722
v 0.000000 1.584973 1.492142
v 1.063136 1.584973 1.051775
v -1.120124 2.239144 1.108754
v 0.000000 1.584973 1.492142
v 0.000000 2.239144 1.572722
v -1.120124 2.239144 1.108754
v -1.063136 1.584973 1.051775
v 0.000000 1.584973 1.492142
v -1.584086 2.239144 -0.011361
v -1.063136 1.584973 1.051775
v -1.120124 2.239144 1.108754
v -1.503485 1.584973 -0.011361
v -1.063136 1.584973 1.051775
v -1.584086 2.239144 -0.011361
v -1.120124 2.239144 -1.131479
v -1.503485 1.584973 -0.011361
v -1.584086 2.239144 -0.011361
v -1.120124 2.239144 -1.131479
v -1.063136 1.584973 -1.074497
v -1.503485 1.584973 -0.011361
v 0.000000 2.239144 -1.595446
v -1.063136 1.584973 -1.074497
v -1.120124 2.239144 -1.131479
v 0.000000 2.239144 -1.595446
v 0.000000 1.584974 -1.514863
v -1.063136 1.584973 -1.074497
v 1.120124 2.239144 -1.131479
v 0.000000 1.584974 -1.514863
v 0.000000 2.239144 -1.595446
v 1.120124 2.239144 -1.131479
v 1.063136 1.584973 -1.074497
v 0.000000 1.584974 -1.514863
v 1.063136 1.584973 -1.074497
v 0.806471 1.297388 -0.817832
v 0.000000 1.297388 -1.151885
v 0.806471 1.297388 -0.817832
v 0.000000 1.032293 -0.011361
v 0.000000 1.297388 -1.151885
v 0.000000 1.032293 -0.011361
v -0.806471 1.297388 -0.817832
v 0.000000 1.297388 -1.151885
v 0.000000 1.032293 -0.011361
v -1.140527 1.297388 -0.011361
v -0.806471 1.297388 -0.817832
v 0.000000 1.032293 -0.011361
v -0.806471 1.297388 0.795110
v -1.140527 1.297388 -0.011361
v 0.000000 1.297388 1.129160
v -0.806471 1.297388 0.795110
v 0.000000 1.032293 -0.011361
v 0.806471 1.297388 0.795110
v 0.000000 1.297388 1.129160
v 0.000000 1.032293 -0.011361
v 1.140527 1.297388 -0.011361
v 0.806471 1.297388 0.795110
v 0.000000 1.032293 -0.011361
v 1.140527 1.297388 -0.011361
v 0.000000 1.032293 -0.011361
v 0.806471 1.297388 -0.817832
v 1.120124 2.239144 -1.131479
v 1.584086 2.239144 -0.011361
v 1.063136 1.584973 -1.074497
v 1.120124 2.239144 -1.131479
v 1.472078 3.061767 -0.011361
v 1.584086 2.239144 -0.011361
v 1.472078 3.061767 -0.011361
v 1.040933 3.061767 1.029557
v 1.584086 2.239144 -0.011361
v 1.584086 2.239144 -0.011361
v 1.040933 3.061767 1.029557
v 1.120124 2.239144 1.108754
v 0.000000 3.061767 1.460720
v 1.120124 2.239144 1.108754
v 1.040933 3.061767 1.029557
v 0.000000 3.061767 1.460720
v 0.000000 2.239144 1.572722
v 1.120124 2.239144 1.108754
v -1.040933 3.061767 1.029557
v 0.000000 2.239144 1.572722
v 0.000000 3.061767 1.460720
v -1.040933 3.061767 1.029557
v -1.120124 2.239144 1.108754
v 0.000000 2.239144 1.572722
v -1.472078 3.061767 -0.011361
v -1.120124 2.239144 1.108754
v -1.040933 3.061767 1.029557
v -1.584086 2.239144 -0.011361
v -1.120124 2.239144 1.108754
v -1.472078 3.061767 -0.011361
v -1.040933 3.061767 -1.052279
v -1.584086 2.239144 -0.011361
v -1.472078 3.061767 -0.011361
v -1.120124 2.239144 -1.131479
v -1.584086 2.239144 -0.011361
v -1.040933 3.061767 -1.052279
v 0.000000 3.061767 -1.483441
v -1.120124 2.239144 -1.131479
v -1.040933 3.061767 -1.052279
v 0.000000 3.061767 -1.483441
v 0.000000 2.239144 -1.595446
v -1.120124 2.239144 -1.131479
v 1.040933 3.061767 -1.052279
v 0.000000 2.239144 -1.595446
v 0.000000 3.061767 -1.483441
v 1.040933 3.061767 -1.052279
v 1.120124 2.239144 -1.131479
v 0.000000 2.239144 -1.595446
v 0.000000 4.020296 -1.048037
v 1.040933 3.061767 -1.052279
v 0.000000 3.061767 -1.483441
v 0.000000 4.020296 -1.048037
v 0.000000 3.061767 -1.483441
v -0.733052 4.020296 -0.744401
v -0.733052 4.020296 -0.744401
v 0.000000 3.061767 -1.483441
v -1.040933 3.061767 -1.052279
v -1.040933 3.061767 -1.052279
v -1.036676 4.020296 -0.011361
v -0.733052 4.020296 -0.744401
v -1.040933 3.061767 -1.052279
v -1.472078 3.061767 -0.011361
v -1.036676 4.020296 -0.011361
v -1.472078 3.061767 -0.011361
v -0.733052 4.020296 0.721680
v -1.036676 4.020296 -0.011361
v -1.472078 3.061767 -0.011361
v -1.040933 3.061767 1.029557
v -0.733052 4.020296 0.721680
v -0.733052 4.020296 0.721680
v -1.040933 3.061767 1.029557
v 0.000000 4.020296 1.025312
v 0.000000 4.020296 1.025312
v -1.040933 3.061767 1.029557
v 0.000000 3.061767 1.460720
v 0.000000 4.020296 1.025312
v 0.000000 3.061767 1.460720
v 0.733052 4.020296 0.721680
v 0.733052 4.020296 0.721680
v 0.000000 3.061767 1.460720
v 1.040933 3.061767 1.029557
v 1.036676 4.020296 -0.011361
v 0.733052 4.020296 0.721680
v 1.040933 3.061767 1.029557
v 1.472078 3.061767 -0.011361
v 1.036676 4.020296 -0.011361
v 1.040933 3.061767 1.029557
v 0.733052 4.020296 -0.744401
v 1.036676 4.020296 -0.011361
v 1.472078 3.061767 -0.011361
v 1.040933 3.061767 -1.052279
v 0.733052 4.020296 -0.744401
v 1.472078 3.061767 -0.011361
v 1.120124 2.239144 -1.131479
v 1.040933 3.061767 -1.052279
v 1.472078 3.061767 -0.011361
v 0.733052 4.020296 -0.744401
v 1.040933 3.061767 -1.052279
v 0.000000 4.020296 -1.048037
v 0.424194 4.489886 -0.435536
v 0.733052 4.020296 -0.744401
v 0.000000 4.020296 -1.048037
v 0.424194 4.489886 -0.435536
v 0.000000 4.020296 -1.048037
v 0.000000 4.489886 -0.611237
v 0.000000 4.489886 -0.611237
v 0.000000 4.020296 -1.048037
v -0.733052 4.020296 -0.744401
v 0.000000 4.489886 -0.611237
v -0.733052 4.020296 -0.744401
v -0.424194 4.489886 -0.435536
v -0.733052 4.020296 -0.744401
v -1.036676 4.020296 -0.011361
v -0.424194 4.489886 -0.435536
v -0.424194 4.489886 -0.435536
v -1.036676 4.020296 -0.011361
v -0.599867 4.489886 -0.011361
v -0.599867 4.489886 -0.011361
v -1.036676 4.020296 -0.011361
v -0.733052 4.020296 0.721680
v -0.599867 4.489886 -0.011361
v -0.733052 4.020296 0.721680
v -0.424194 4.489886 0.412815
v -0.424194 4.489886 0.412815
v -0.733052 4.020296 0.721680
v 0.000000 4.020296 1.025312
v -0.424194 4.489886 0.412815
v 0.000000 4.020296 1.025312
v 0.000000 4.489886 0.588516
v 0.000000 4.489886 0.588516
v 0.000000 4.020296 1.025312
v 0.733052 4.020296 0.721680
v 0.000000 4.489886 0.588516
v 0.733052 4.020296 0.721680
v 0.424194 4.489886 0.412815
v 1.036676 4.020296 -0.011361
v 0.424194 4.489886 0.412815
v 0.733052 4.020296 0.721680
v 0.599867 4.489886 -0.011361
v 0.424194 4.489886 0.412815
v 1.036676 4.020296 -0.011361
v 0.733052 4.020296 -0.744401
v 0.599867 4.489886 -0.011361
v 1.036676 4.020296 -0.011361
v 0.733052 4.020296 -0.744401
v 0.424194 4.489886 -0.435536
v 0.599867 4.489886 -0.011361
v 0.599867 4.489886 -0.011361
v 0.424194 4.489886 -0.435536
v 0.000000 4.664996 -0.011361
v 0.599867 4.489886 -0.011361
v 0.000000 4.664996 -0.011361
v 0.424194 4.489886 0.412815
v 0.424194 4.489886 0.412815
v 0.000000 4.664996 -0.011361
v 0.000000 4.489886 0.588516
v 0.000000 4.664996 -0.011361
v -0.424194 4.489886 0.412815
v 0.000000 4.489886 0.588516
v 0.000000 4.664996 -0.011361
v -0.599867 4.489886 -0.011361
v -0.424194 4.489886 0.412815
v 0.000000 4.664996 -0.011361
v -0.424194 4.489886 -0.435536
v -0.599867 4.489886 -0.011361
v 0.000000 4.489886 -0.611237
v -0.424194 4.489886 -0.435536
v 0.000000 4.664996 -0.011361
v 0.424194 4.489886 -0.435536
v 0.000000 4.489886 -0.611237
v 0.000000 4.664996 -0.011361
v -0.208356 1.127921 -0.162748
v 0.079588 -0.283554 -0.256310
v -0.208356 -0.283554 -0.162748
v 0.079588 1.127921 -0.256310
v -0.208356 1.127921 -0.162748
v -0.208356 -0.283554 0.140025
v -0.208356 1.127921 0.140025
v -0.208356 -0.283554 -0.162748
v 0.079588 1.127921 0.233587
v -0.208356 -0.283554 0.140025
v 0.079588 -0.283554 0.233587
v -0.208356 1.127921 0.140025
v 0.257563 -0.283554 -0.011361
v 0.079588 1.127921 0.233587
v 0.079588 -0.283554 0.233587
v 0.257563 1.127921 -0.011361
v 0.079588 -0.283554 -0.256310
v 0.257563 1.127921 -0.011361
v 0.257563 -0.283554 -0.011361
v 0.079588 1.127921 -0.256310
vt -0.795674 0.439394
vt -0.471756 0.345944
vt -0.471756 0.439394
vt -0.471756 0.345944
vt -0.147837 0.345944
vt -0.471756 0.439394
vt -0.471756 0.439394
vt -0.147837 0.345944
vt -0.147837 0.439394
vt -0.147837 0.345944
vt 0.176082 0.439394
vt -0.147837 0.439394
vt -0.147837 0.345944
vt 0.176082 0.345944
vt 0.176082 0.439394
vt 0.500000 0.345944
vt 0.176082 0.439394
vt 0.176082 0.345944
vt 0.500000 0.345944
vt 0.500000 0.439394
vt 0.176082 0.439394
vt 0.823919 0.345944
vt 0.500000 0.439394
vt 0.500000 0.345944
vt 0.823919 0.439394
vt 0.500000 0.439394
vt 0.823919 0.345944
vt 1.147840 0.345944
vt 0.823919 0.439394
vt 0.823919 0.345944
vt 1.147840 0.439394
vt 0.823919 0.439394
vt 1.147840 0.345944
vt 1.471760 0.345944
vt 1.147840 0.439394
vt 1.147840 0.345944
vt 1.471760 0.439394
vt 1.147840 0.439394
vt 1.471760 0.345944
vt 1.471760 0.439394
vt 1.471760 0.345944
vt 1.795670 0.345944
vt 1.471760 0.439394
vt 1.795670 0.345944
vt 1.795670 0.439394
vt 1.795670 0.439394
vt 1.471760 0.532843
vt 1.471760 0.439394
vt 1.471760 0.532843
vt 1.147840 0.532843
vt 1.471760 0.439394
vt 1.471760 0.439394
vt 1.147840 0.532843
vt 1.147840 0.439394
vt 0.823919 0.532843
vt 1.147840 0.439394
vt 1.147840 0.532843
vt 0.823919 0.532843
vt 0.823919 0.439394
vt 1.147840 0.439394
vt 0.500000 0.532843
vt 0.823919 0.439394
vt 0.823919 0.532843
vt 0.500000 0.532843
vt 0.500000 0.439394
vt 0.823919 0.439394
vt 0.176082 0.532843
vt 0.500000 0.439394
vt 0.500000 0.532843
vt 0.176082 0.439394
vt 0.500000 0.439394
vt 0.176082 0.532843
vt -0.147837 0.532843
vt 0.176082 0.439394
vt 0.176082 0.532843
vt -0.147837 0.532843
vt -0.147837 0.439394
vt 0.176082 0.439394
vt -0.471756 0.532843
vt -0.147837 0.439394
vt -0.147837 0.532843
vt -0.471756 0.532843
vt -0.471756 0.439394
vt -0.147837 0.439394
vt -0.795674 0.532843
vt -0.471756 0.439394
vt -0.471756 0.532843
vt -0.795674 0.532843
vt -0.795674 0.439394
vt -0.471756 0.439394
vt -0.795674 0.439394
vt -0.795674 0.345944
vt -0.471756 0.345944
vt -0.795674 0.345944
vt -0.633715 0.252494
vt -0.471756 0.345944
vt -0.309796 0.252494
vt -0.147837 0.345944
vt -0.471756 0.345944
vt 0.014122 0.252494
vt 0.176082 0.345944
vt -0.147837 0.345944
vt 0.338041 0.252494
vt 0.500000 0.345944
vt 0.176082 0.345944
vt 0.823919 0.345944
vt 0.500000 0.345944
vt 0.661959 0.252494
vt 1.147840 0.345944
vt 0.823919 0.345944
vt 0.985878 0.252494
vt 1.471760 0.345944
vt 1.147840 0.345944
vt 1.309800 0.252494
vt 1.471760 0.345944
vt 1.633710 0.252494
vt 1.795670 0.345944
vt 1.795670 0.532843
vt 1.471760 0.532843
vt 1.795670 0.439394
vt 1.795670 0.532843
vt 1.471760 0.660414
vt 1.471760 0.532843
vt 1.471760 0.660414
vt 1.147840 0.660414
vt 1.471760 0.532843
vt 1.471760 0.532843
vt 1.147840 0.660414
vt 1.147840 0.532843
vt 0.823919 0.660414
vt 1.147840 0.532843
vt 1.147840 0.660414
vt 0.823919 0.660414
vt 0.823919 0.532843
vt 1.147840 0.532843
vt 0.500000 0.660414
vt 0.823919 0.532843
vt 0.823919 0.660414
vt 0.500000 0.660414
vt 0.500000 0.532843
vt 0.823919 0.532843
vt 0.176082 0.660414
vt 0.500000 0.532843
vt 0.500000 0.660414
vt 0.176082 0.532843
vt 0.500000 0.532843
vt 0.176082 0.660414
vt -0.147837 0.660414
vt 0.176082 0.532843
vt 0.176082 0.660414
vt -0.147837 0.532843
vt 0.176082 0.532843
vt -0.147837 0.660414
vt -0.471756 0.660414
vt -0.147837 0.532843
vt -0.147837 0.660414
vt -0.471756 0.660414
vt -0.471756 0.532843
vt -0.147837 0.532843
vt -0.795674 0.660414
vt -0.471756 0.532843
vt -0.471756 0.660414
vt -0.795674 0.660414
vt -0.795674 0.532843
vt -0.471756 0.532843
vt -0.471756 0.803353
vt -0.795674 0.660414
vt -0.471756 0.660414
vt -0.471756 0.803353
vt -0.471756 0.660414
vt -0.147837 0.803353
vt -0.147837 0.803353
vt -0.471756 0.660414
vt -0.147837 0.660414
vt -0.147837 0.660414
vt 0.176082 0.803353
vt -0.147837 0.803353
vt -0.147837 0.660414
vt 0.176082 0.660414
vt 0.176082 0.803353
vt 0.176082 0.660414
vt 0.500000 0.803353
vt 0.176082 0.803353
vt 0.176082 0.660414
vt 0.500000 0.660414
vt 0.500000 0.803353
vt 0.500000 0.803353
vt 0.500000 0.660414
vt 0.823919 0.803353
vt 0.823919 0.803353
vt 0.500000 0.660414
vt 0.823919 0.660414
vt 0.823919 0.803353
vt 0.823919 0.660414
vt 1.147840 0.803353
vt 1.147840 0.803353
vt 0.823919 0.660414
vt 1.147840 0.660414
vt 1.471760 0.803353
vt 1.147840 0.803353
vt 1.147840 0.660414
vt 1.471760 0.660414
vt 1.471760 0.803353
vt 1.147840 0.660414
vt 1.795670 0.803353
vt 1.471760 0.803353
vt 1.471760 0.660414
vt 1.795670 0.660414
vt 1.795670 0.803353
vt 1.471760 0.660414
vt 1.795670 0.532843
vt 1.795670 0.660414
vt 1.471760 0.660414
vt -0.795674 0.803353
vt -0.795674 0.660414
vt -0.471756 0.803353
vt -0.795674 0.896803
vt -0.795674 0.803353
vt -0.471756 0.803353
vt -0.795674 0.896803
vt -0.471756 0.803353
vt -0.471756 0.896803
vt -0.471756 0.896803
vt -0.471756 0.803353
vt -0.147837 0.803353
vt -0.471756 0.896803
vt -0.147837 0.803353
vt -0.147837 0.896803
vt -0.147837 0.803353
vt 0.176082 0.803353
vt -0.147837 0.896803
vt -0.147837 0.896803
vt 0.176082 0.803353
vt 0.176082 0.896803
vt 0.176082 0.896803
vt 0.176082 0.803353
vt 0.500000 0.803353
vt 0.176082 0.896803
vt 0.500000 0.803353
vt 0.500000 0.896803
vt 0.500000 0.896803
vt 0.500000 0.803353
vt 0.823919 0.803353
vt 0.500000 0.896803
vt 0.823919 0.803353
vt 0.823919 0.896803
vt 0.823919 0.896803
vt 0.823919 0.803353
vt 1.147840 0.803353
vt 0.823919 0.896803
vt 1.147840 0.803353
vt 1.147840 0.896803
vt 1.471760 0.803353
vt 1.147840 0.896803
vt 1.147840 0.803353
vt 1.471760 0.896803
vt 1.147840 0.896803
vt 1.471760 0.803353
vt 1.795670 0.803353
vt 1.471760 0.896803
vt 1.471760 0.803353
vt 1.795670 0.803353
vt 1.795670 0.896803
vt 1.471760 0.896803
vt 1.471760 0.896803
vt 1.795670 0.896803
vt 1.633710 0.990463
vt 1.471760 0.896803
vt 1.309800 0.990463
vt 1.147840 0.896803
vt 1.147840 0.896803
vt 0.985878 0.990463
vt 0.823919 0.896803
vt 0.661959 0.990463
vt 0.500000 0.896803
vt 0.823919 0.896803
vt 0.338041 0.990463
vt 0.176082 0.896803
vt 0.500000 0.896803
vt 0.014122 0.990463
vt -0.147837 0.896803
vt 0.176082 0.896803
vt -0.471756 0.896803
vt -0.147837 0.896803
vt -0.309796 0.990463
vt -0.795674 0.896803
vt -0.471756 0.896803
vt -0.633715 0.990463
vt 0.173658 0.247818
vt 0.023457 0.003036
vt 0.173658 0.003036
vt 0.023457 0.247818
vt 0.173658 0.247818
vt 0.323859 0.003036
vt 0.323859 0.247818
vt 0.173658 0.003036
vt 0.474061 0.247818
vt 0.323859 0.003036
vt 0.474061 0.003036
vt 0.323859 0.247818
vt 0.624263 0.003036
vt 0.474061 0.247818
vt 0.474061 0.003036
vt 0.624263 0.247818
vt 0.774464 0.003036
vt 0.624263 0.247818
vt 0.624263 0.003036
vt 0.774464 0.247818
vn 0.2491 -0.7591 -0.6014
vn -0.2491 -0.7591 -0.6014
vn -0.6014 -0.7591 -0.2491
vn -0.6014 -0.7591 0.2491
vn -0.2491 -0.7591 0.6014
vn 0.2491 -0.7591 0.6014
vn 0.6014 -0.7591 0.2491
vn 0.6014 -0.7591 -0.2491
vn 0.9180 -0.1131 -0.3802
vn 0.9180 -0.1131 0.3802
vn 0.3802 -0.1131 0.9180
vn -0.3802 -0.1131 0.9180
vn -0.9180 -0.1131 0.3802
vn -0.9180 -0.1131 -0.3802
vn -0.3802 -0.1131 -0.9180
vn 0.3802 -0.1131 -0.9180
vn 0.0934 -0.9698 -0.2254
vn -0.0934 -0.9698 -0.2254
vn -0.2254 -0.9698 -0.0934
vn -0.2254 -0.9698 0.0934
vn -0.0934 -0.9698 0.2254
vn 0.0934 -0.9698 0.2254
vn 0.2254 -0.9698 0.0934
vn 0.2254 -0.9698 -0.0934
vn 0.9167 0.1248 -0.3797
vn 0.9167 0.1248 0.3797
vn 0.3797 0.1248 0.9167
vn -0.3797 0.1248 0.9167
vn -0.9167 0.1248 0.3797
vn -0.9167 0.1248 -0.3797
vn -0.3797 0.1248 -0.9167
vn 0.3797 0.1248 -0.9167
vn 0.3529 0.3870 -0.8519
vn -0.3529 0.3870 -0.8519
vn -0.8519 0.3870 -0.3529
vn -0.8519 0.3870 0.3529
vn -0.3529 0.3870 0.8519
vn 0.3529 0.3870 0.8519
vn 0.8519 0.3870 0.3529
vn 0.8519 0.3870 -0.3529
vn 0.2902 0.6518 -0.7007
vn -0.2902 0.6518 -0.7007
vn -0.7007 0.6518 -0.2902
vn -0.7007 0.6518 0.2902
vn -0.2902 0.6518 0.7007
vn 0.2902 0.6518 0.7007
vn 0.7007 0.6518 0.2902
vn 0.7007 0.6518 -0.2902
vn 0.2784 0.9535 -0.1153
vn 0.2784 0.9535 0.1153
vn 0.1153 0.9535 0.2783
vn -0.1153 0.9535 0.2783
vn -0.2784 0.9535 0.1153
vn -0.2784 0.9535 -0.1153
vn -0.1153 0.9535 -0.2783
vn 0.1153 0.9535 -0.2783
vn -0.3090 0.0000 -0.9511
vn -1.0000 0.0000 0.0000
vn -0.3090 -0.0000 0.9511
vn 0.8090 -0.0000 0.5878
vn 0.8090 0.0000 -0.5878
s 1
f 1/1/1 2/2/1 3/3/1
f 4/4/2 5/5/2 6/6/2
f 7/7/2 8/8/2 9/9/2
f 10/10/3 11/11/3 12/12/3
f 13/13/3 14/14/3 15/15/3
f 16/16/4 17/17/4 18/18/4
f 19/19/4 20/20/4 21/21/4
f 22/22/5 23/23/5 24/24/5
f 25/25/5 26/26/5 27/27/5
f 28/28/6 29/29/6 30/30/6
f 31/31/6 32/32/6 33/33/6
f 34/34/7 35/35/7 36/36/7
f 37/37/7 38/38/7 39/39/7
f 40/40/8 41/41/8 42/42/8
f 43/43/8 44/44/8 45/45/8
f 46/46/9 47/47/9 48/48/9
f 49/49/10 50/50/10 51/51/10
f 52/52/10 53/53/10 54/54/10
f 55/55/11 56/56/11 57/57/11
f 58/58/11 59/59/11 60/60/11
f 61/61/12 62/62/12 63/63/12
f 64/64/12 65/65/12 66/66/12
f 67/67/13 68/68/13 69/69/13
f 70/70/13 71/71/13 72/72/13
f 73/73/14 74/74/14 75/75/14
f 76/76/14 77/77/14 78/78/14
f 79/79/15 80/80/15 81/81/15
f 82/82/15 83/83/15 84/84/15
f 85/85/16 86/86/16 87/87/16
f 88/88/16 89/89/16 90/90/16
f 91/91/1 92/92/1 93/93/1
f 94/94/17 95/95/17 96/96/17
f 97/97/18 98/98/18 99/99/18
f 100/100/19 101/101/19 102/102/19
f 103/103/20 104/104/20 105/105/20
f 106/106/21 107/107/21 108/108/21
f 109/109/22 110/110/22 111/111/22
f 112/112/23 113/113/23 114/114/23
f 115/115/24 116/116/24 117/117/24
f 118/118/9 119/119/9 120/120/9
f 121/121/25 122/122/25 123/123/25
f 124/124/26 125/125/26 126/126/26
f 127/127/26 128/128/26 129/129/26
f 130/130/27 131/131/27 132/132/27
f 133/133/27 134/134/27 135/135/27
f 136/136/28 137/137/28 138/138/28
f 139/139/28 140/140/28 141/141/28
f 142/142/29 143/143/29 144/144/29
f 145/145/29 146/146/29 147/147/29
f 148/148/30 149/149/30 150/150/30
f 151/151/30 152/152/30 153/153/30
f 154/154/31 155/155/31 156/156/31
f 157/157/31 158/158/31 159/159/31
f 160/160/32 161/161/32 162/162/32
f 163/163/32 164/164/32 165/165/32
f 166/166/33 167/167/33 168/168/33
f 169/169/34 170/170/34 171/171/34
f 172/172/34 173/173/34 174/174/34
f 175/175/35 176/176/35 177/177/35
f 178/178/35 179/179/35 180/180/35
f 181/181/36 182/182/36 183/183/36
f 184/184/36 185/185/36 186/186/36
f 187/187/37 188/188/37 189/189/37
f 190/190/37 191/191/37 192/192/37
f 193/193/38 194/194/38 195/195/38
f 196/196/38 197/197/38 198/198/38
f 199/199/39 200/200/39 201/201/39
f 202/202/39 203/203/39 204/204/39
f 205/205/40 206/206/40 207/207/40
f 208/208/40 209/209/40 210/210/40
f 211/211/25 212/212/25 213/213/25
f 214/214/33 215/215/33 216/216/33
f 217/217/41 218/218/41 219/219/41
f 220/220/41 221/221/41 222/222/41
f 223/223/42 224/224/42 225/225/42
f 226/226/42 227/227/42 228/228/42
f 229/229/43 230/230/43 231/231/43
f 232/232/43 233/233/43 234/234/43
f 235/235/44 236/236/44 237/237/44
f 238/238/44 239/239/44 240/240/44
f 241/241/45 242/242/45 243/243/45
f 244/244/45 245/245/45 246/246/45
f 247/247/46 248/248/46 249/249/46
f 250/250/46 251/251/46 252/252/46
f 253/253/47 254/254/47 255/255/47
f 256/256/47 257/257/47 258/258/47
f 259/259/48 260/260/48 261/261/48
f 262/262/48 263/263/48 264/264/48
f 265/265/49 266/266/49 267/267/49
f 268/268/50 269/269/50 270/270/50
f 271/271/51 272/272/51 273/273/51
f 274/274/52 275/275/52 276/276/52
f 277/277/53 278/278/53 279/279/53
f 280/280/54 281/281/54 282/282/54
f 283/283/55 284/284/55 285/285/55
f 286/286/56 287/287/56 288/288/56
f 289/289/57 290/290/57 291/291/57
f 290/290/57 289/289/57 292/292/57
f 293/293/58 294/294/58 295/295/58
f 294/294/58 293/293/58 296/296/58
f 297/297/59 298/298/59 299/299/59
f 298/298/59 297/297/59 300/300/59
f 301/301/60 302/302/60 303/303/60
f 302/302/60 301/301/60 304/304/60
f 305/305/61 306/306/61 307/307/61
f 306/306/61 305/305/61 308/308/61
